HIERARCHY
ROOT Hips
{
	OFFSET 38.128201 -3.357306 98.879997
	CHANNELS 6 Xposition Yposition Zposition Xrotation Yrotation Zrotation
	JOINT spine
	{
		OFFSET 0.000000 -0.477352 8.301041
		CHANNELS 3 Xrotation Yrotation Zrotation
		JOINT spine1
		{
			OFFSET 0.000000 -0.000002 10.456497
			CHANNELS 3 Xrotation Yrotation Zrotation
			JOINT spine2
			{
				OFFSET 0.000000 -0.000002 10.019203
				CHANNELS 3 Xrotation Yrotation Zrotation
				JOINT Neck
				{
					OFFSET 0.000000 -1.226414 25.723495
					CHANNELS 3 Xrotation Yrotation Zrotation
					JOINT Head
					{
						OFFSET 0.000000 -0.000001 7.771744
						CHANNELS 3 Xrotation Yrotation Zrotation
						End Site
						{
							OFFSET 0.000000 6.203937 18.811996
						}
					}
				}
				JOINT RightShoulder
				{
					OFFSET -4.218800 0.587437 10.820007
					CHANNELS 3 Xrotation Yrotation Zrotation
					JOINT RightArm
					{
						OFFSET 0.000000 -0.000002 14.191406
						CHANNELS 3 Xrotation Yrotation Zrotation
						JOINT RightArmRoll
						{
							OFFSET 0.000000 -0.000001 7.164078
							CHANNELS 3 Xrotation Yrotation Zrotation
							JOINT RightForeArm
							{
								OFFSET 0.000000 -0.000003 20.866501
								CHANNELS 3 Xrotation Yrotation Zrotation
								JOINT RightForeArmRoll
								{
									OFFSET 0.000000 -0.000001 8.039215
									CHANNELS 3 Xrotation Yrotation Zrotation
									JOINT RightHand
									{
										OFFSET 0.000000 -0.000003 16.132996
										CHANNELS 3 Xrotation Yrotation Zrotation
										End Site
										{
											OFFSET 0.000000 0.000000 0.100006
										}
									}
								}
							}
						}
					}
				}
				JOINT LeftShoulder
				{
					OFFSET 4.218800 0.587437 10.820007
					CHANNELS 3 Xrotation Yrotation Zrotation
					JOINT LeftArm
					{
						OFFSET 0.000000 -0.000002 14.191406
						CHANNELS 3 Xrotation Yrotation Zrotation
						JOINT LeftArmRoll
						{
							OFFSET 0.000000 -0.000001 7.164078
							CHANNELS 3 Xrotation Yrotation Zrotation
							JOINT LeftForeArm
							{
								OFFSET 0.000000 -0.000003 20.866501
								CHANNELS 3 Xrotation Yrotation Zrotation
								JOINT LeftForeArmRoll
								{
									OFFSET 0.000000 -0.000001 8.039215
									CHANNELS 3 Xrotation Yrotation Zrotation
									JOINT LeftHand
									{
										OFFSET 0.000000 -0.000003 16.132996
										CHANNELS 3 Xrotation Yrotation Zrotation
										End Site
										{
											OFFSET 0.000000 0.000000 0.100006
										}
									}
								}
							}
						}
					}
				}
			}
		}
	}
	JOINT RightUpLeg
	{
		OFFSET -7.357731 1.131810 -1.349213
		CHANNELS 3 Xrotation Yrotation Zrotation
		JOINT RightUpLegRoll
		{
			OFFSET 0.000000 -0.000003 18.916801
			CHANNELS 3 Xrotation Yrotation Zrotation
			JOINT RightLeg
			{
				OFFSET 0.000000 0.000004 -23.425598
				CHANNELS 3 Xrotation Yrotation Zrotation
				JOINT RightLegRoll
				{
					OFFSET 0.000000 -0.000004 23.502304
					CHANNELS 3 Xrotation Yrotation Zrotation
					JOINT RightFoot
					{
						OFFSET 0.000000 -0.000003 19.561707
						CHANNELS 3 Xrotation Yrotation Zrotation
						JOINT RightToeBase
						{
							OFFSET 0.000000 -0.000003 16.352600
							CHANNELS 3 Xrotation Yrotation Zrotation
							End Site
							{
								OFFSET 0.006931 0.912836 7.919434
							}
						}
					}
				}
			}
		}
	}
	JOINT LeftUpLeg
	{
		OFFSET 7.357731 1.131810 -1.349213
		CHANNELS 3 Xrotation Yrotation Zrotation
		JOINT LeftUpLegRoll
		{
			OFFSET 0.000000 -0.000003 18.916901
			CHANNELS 3 Xrotation Yrotation Zrotation
			JOINT LeftLeg
			{
				OFFSET 0.000000 -0.000004 23.425499
				CHANNELS 3 Xrotation Yrotation Zrotation
				JOINT LeftLegRoll
				{
					OFFSET 0.000000 -0.000004 23.719498
					CHANNELS 3 Xrotation Yrotation Zrotation
					JOINT LeftFoot
					{
						OFFSET 0.000000 -0.000003 19.344406
						CHANNELS 3 Xrotation Yrotation Zrotation
						JOINT LeftToeBase
						{
							OFFSET 0.000000 -0.000003 16.352600
							CHANNELS 3 Xrotation Yrotation Zrotation
							End Site
							{
								OFFSET -0.031063 0.912836 7.919434
							}
						}
					}
				}
			}
		}
	}
}
MOTION
Frames: 7
Frame Time: 0.041667
39.125599 -2.465975 98.843613 -0.878351 -0.454967 -1.444275 -1.827141 0.057219 0.095941 0.342330 0.118595 0.202312 1.987404 0.119837 0.200890 34.676167 -3.253685 -0.190018 -18.188801 4.432658 -0.403570 -13.695537 -32.998464 -15.108660 -130.719849 -172.132515 -80.936587 0.000001 0.000002 -0.000019 106.700143 4.878065 11.455606 -0.000000 0.000003 -3.004680 -5.000147 -7.999839 0.000050 0.538396 66.305680 0.305142 -52.804753 106.870918 36.135000 0.000000 -0.000009 0.000002 5.805311 10.021493 0.072361 -0.000006 -0.000031 3.000001 -5.000231 7.998861 -0.000147 -2.465684 -175.882794 0.582176 -179.999991 0.000005 -1.028007 173.705453 -3.650915 -0.687449 -0.000002 -0.000004 0.069327 68.820112 6.885231 2.168682 25.456860 -7.355619 -0.000003 -1.232338 176.017909 0.952730 -0.000004 -0.000004 -1.115490 -9.251474 3.862215 0.979944 -0.000004 -0.000002 -0.118914 68.444021 -6.920295 -2.092509 25.456957 7.355614 0.000000 
39.133999 -2.426025 98.837097 -0.875770 -0.454480 -1.444838 -1.828619 0.057403 0.095305 0.340947 0.118918 0.200719 1.986024 0.120445 0.199288 34.681648 -3.219473 -0.192929 -18.196394 4.399575 -0.403246 -13.683553 -32.974388 -15.090845 -130.670671 -172.100837 -81.002738 0.000001 0.000002 -0.000020 107.052430 4.827338 11.480861 -0.000004 0.000004 -3.004683 -5.000148 -7.999840 0.000051 0.551344 66.327024 0.293117 -52.776103 106.858876 36.122309 0.000000 -0.000008 0.000003 5.810574 10.037921 0.070459 -0.000004 -0.000031 3.000001 -5.000229 7.998861 -0.000147 -2.466006 -175.884816 0.581920 -179.999991 0.000005 -1.028006 173.713403 -3.651962 -0.687052 -0.000002 -0.000004 0.069254 68.813985 6.885175 2.168851 25.456860 -7.355621 -0.000003 -1.236620 176.015928 0.952923 -0.000005 -0.000004 -1.115470 -9.253676 3.861965 0.979932 -0.000004 -0.000002 -0.118964 68.448331 -6.920274 -2.092534 25.456957 7.355614 -0.000000 
39.125801 -2.432364 98.831100 -0.873408 -0.453855 -1.445349 -1.829981 0.057582 0.094692 0.339667 0.119220 0.199153 1.984744 0.121004 0.197717 34.686480 -3.186428 -0.195838 -18.202722 4.368371 -0.403013 -13.671592 -32.952681 -15.073124 -130.624595 -172.069472 -81.067775 0.000001 0.000004 -0.000018 107.392902 4.778886 11.505612 -0.000001 0.000003 -3.004680 -5.000152 -7.999838 0.000047 0.563188 66.347187 0.282189 -52.743878 106.848672 36.105343 0.000001 -0.000007 0.000003 5.814892 10.053670 0.068691 -0.000003 -0.000032 3.000000 -5.000229 7.998860 -0.000148 -2.466152 -175.886810 0.581585 -179.999991 0.000005 -1.028007 173.721190 -3.654012 -0.686775 -0.000002 -0.000004 0.069162 68.807961 6.885121 2.168917 25.456863 -7.355619 -0.000004 -1.240333 176.013948 0.953108 -0.000005 -0.000005 -1.115450 -9.255276 3.861641 0.979903 -0.000003 -0.000002 -0.119016 68.452545 -6.920281 -2.092572 25.456960 7.355613 -0.000000 
39.121201 -2.450473 98.833710 -0.871316 -0.453076 -1.445851 -1.831201 0.057754 0.094105 0.338508 0.119500 0.197629 1.983584 0.121509 0.196187 34.690582 -3.154831 -0.198717 -18.207621 4.339390 -0.402869 -13.659563 -32.933547 -15.055429 -130.581811 -172.039105 -81.131480 0.000000 0.000002 -0.000019 107.721038 4.733068 11.529760 0.000000 0.000006 -3.004680 -5.000152 -7.999836 0.000048 0.573623 66.365847 0.272675 -52.710479 106.839629 36.086519 0.000002 -0.000008 0.000003 5.818133 10.068440 0.067097 -0.000002 -0.000031 3.000000 -5.000233 7.998861 -0.000148 -2.466096 -175.888791 0.581135 -179.999991 0.000005 -1.028007 173.728730 -3.656047 -0.686512 -0.000002 -0.000004 0.069048 68.802053 6.885114 2.168882 25.456861 -7.355619 -0.000003 -1.243385 176.011940 0.953279 -0.000005 -0.000004 -1.115430 -9.256195 3.861246 0.979862 -0.000004 -0.000002 -0.119068 68.456664 -6.920318 -2.092521 25.456955 7.355613 0.000000 
39.123699 -2.441736 98.836807 -0.869526 -0.452124 -1.446392 -1.832232 0.057919 0.093550 0.337489 0.119762 0.196159 1.982564 0.121954 0.194711 34.693656 -3.124958 -0.201547 -18.210871 4.312990 -0.402822 -13.647527 -32.917390 -15.037840 -130.542837 -172.010391 -81.193655 0.000001 0.000002 -0.000019 108.036005 4.690088 11.554249 -0.000000 0.000002 -3.004680 -5.000151 -7.999837 0.000048 0.582349 66.382916 0.264886 -52.676792 106.832061 36.066681 0.000001 -0.000007 0.000003 5.820172 10.082239 0.065682 -0.000003 -0.000031 3.000000 -5.000233 7.998860 -0.000148 -2.465840 -175.890799 0.580541 -179.999991 0.000005 -1.026996 173.735943 -3.657089 -0.686161 -0.000002 -0.000004 0.068911 68.796438 6.885053 2.169020 25.456856 -7.355619 -0.000004 -1.245706 176.008948 0.953454 -0.000005 -0.000004 -1.115410 -9.256328 3.860752 0.979801 -0.000004 -0.000002 -0.119122 68.460769 -6.920281 -2.092557 25.456957 7.355614 -0.000000 
39.124199 -2.434695 98.834999 -0.868068 -0.450976 -1.447003 -1.833040 0.058077 0.093031 0.336629 0.120008 0.194753 1.981705 0.122332 0.193301 34.695715 -3.097091 -0.204298 -18.212199 4.289538 -0.402871 -13.635394 -32.904389 -15.020307 -130.507990 -171.983931 -81.253590 -0.000001 0.000003 -0.000020 108.337298 4.649872 11.577097 -0.000001 0.000005 -3.004683 -5.000151 -7.999839 0.000046 0.589063 66.398195 0.259137 -52.637775 106.827253 36.040357 0.000002 -0.000009 0.000003 5.820874 10.094865 0.064483 -0.000005 -0.000031 3.000002 -5.000232 7.998861 -0.000148 -2.465367 -175.893791 0.579809 -179.999991 0.000005 -1.026996 173.742814 -3.658142 -0.685832 -0.000002 -0.000004 0.068749 68.790954 6.885033 2.169059 25.456858 -7.355620 -0.000004 -1.247191 176.006940 0.953583 -0.000004 -0.000004 -1.115400 -9.255601 3.860167 0.979722 -0.000004 -0.000002 -0.119177 68.464559 -6.920295 -2.092624 25.456959 7.355614 -0.000001 
39.119701 -2.432235 98.834000 -0.867050 -0.449616 -1.447715 -1.833669 0.058231 0.092547 0.335916 0.120248 0.193403 1.980984 0.122663 0.191947 34.699174 -3.068789 -0.206934 -18.214315 4.265496 -0.402800 -13.622971 -32.894895 -15.002543 -130.477295 -171.959766 -81.311401 0.000000 0.000000 -0.000019 108.625136 4.612522 11.600238 0.000000 0.000004 -3.004686 -5.000154 -7.999839 0.000045 0.594421 66.411773 0.254708 -52.597613 106.823605 36.012002 0.000002 -0.000008 0.000003 5.820282 10.106319 0.063508 -0.000006 -0.000032 3.000001 -5.000231 7.998861 -0.000147 -2.464666 -175.896783 0.578958 -179.999991 0.000005 -1.026996 173.749125 -3.659178 -0.685538 -0.000002 -0.000004 0.068556 68.785776 6.884994 2.169174 25.456861 -7.355620 -0.000003 -1.247555 176.004945 0.953616 -0.000005 -0.000005 -1.115380 -9.253719 3.859526 0.979625 -0.000003 -0.000002 -0.119233 68.468248 -6.920300 -2.092692 25.456953 7.355615 -0.000000 
